<svg width="150" height="150" viewBox="0 0 150 150" fill="none" xmlns="http://www.w3.org/2000/svg">
<path d="M75 150C116.421 150 150 116.421 150 75C150 33.5786 116.421 0 75 0C33.5787 0 0 33.5786 0 75C0 116.421 33.5787 150 75 150Z" fill="#E0E0E0"/>
<path d="M122.117 129.203V133.353C109.241 143.765 92.8492 150 74.9998 150C57.1521 150 40.7586 143.765 27.884 133.356V129.203C27.884 106.782 46.0598 88.6047 68.4805 88.6047H81.5208C103.941 88.6047 122.117 106.782 122.117 129.203Z" fill="#737377"/>
<path d="M74.9997 77.6331C88.7583 77.6331 99.9119 66.4795 99.9119 52.7208C99.9119 38.9622 88.7583 27.8086 74.9997 27.8086C61.241 27.8086 50.0874 38.9622 50.0874 52.7208C50.0874 66.4795 61.241 77.6331 74.9997 77.6331Z" fill="#737377"/>
</svg>
